# xmcd
#
# Track frame offsets:
#	150
#	19990
#	37221
#	60338
#	81478
#	97258
#	113785
#	130757
#	148286
#	174204
#	195500
#	217514
#
# Disc length: 3157 seconds
#
# Revision: 0
# Processed by: cddbd v1.5PL3 Copyright (c) Steve Scherf et al.
# Submitted via: dBpowerAMP V4.0
#
DISCID=a70c530c
DTITLE=Jim Byrnes - Fresh Horses
DYEAR=2004
DGENRE=Blues
TTITLE0=B's Blues
TTITLE1=Fresh Horses
TTITLE2=Just Like Tom Thumb's Blues
TTITLE3=For the Turnstiles
TTITLE4=I Can't Be Satisfied
TTITLE5=The Embers
TTITLE6=12 Questions
TTITLE7=Just a Pilgrim
TTITLE8=I've Got Blood In My Eyes For You
TTITLE9=Postcard from Mexico (Una Carda Postal de Mexico)
TTITLE10=Love Is Just A Gamble
TTITLE11=East Virginia
EXTD=
EXTT0=
EXTT1=
EXTT2=
EXTT3=
EXTT4=
EXTT5=
EXTT6=
EXTT7=
EXTT8=
EXTT9=
EXTT10=
EXTT11=
PLAYORDER=
